<svg id="SvgjsSvg1001" width="928.3333333333333" height="576.3426038953993" xmlns="http://www.w3.org/2000/svg" version="1.1" xmlns:xlink="http://www.w3.org/1999/xlink" xmlns:svgjs="http://svgjs.com/svgjs"><defs id="SvgjsDefs1002"><marker id="SvgjsMarker1099" markerWidth="14" markerHeight="10" refX="10" refY="5" viewBox="0 0 14 10" orient="auto" markerUnits="userSpaceOnUse" stroke-dasharray="0,0"><path id="SvgjsPath1100" d="M0,0 L14,5 L0,10 L0,0" fill="#323232" stroke="#323232" stroke-width="1"></path></marker><marker id="SvgjsMarker1103" markerWidth="14" markerHeight="10" refX="10" refY="5" viewBox="0 0 14 10" orient="auto" markerUnits="userSpaceOnUse" stroke-dasharray="0,0"><path id="SvgjsPath1104" d="M0,0 L14,5 L0,10 L0,0" fill="#323232" stroke="#323232" stroke-width="1"></path></marker><marker id="SvgjsMarker1107" markerWidth="14" markerHeight="10" refX="10" refY="5" viewBox="0 0 14 10" orient="auto" markerUnits="userSpaceOnUse" stroke-dasharray="0,0"><path id="SvgjsPath1108" d="M0,0 L14,5 L0,10 L0,0" fill="#323232" stroke="#323232" stroke-width="1"></path></marker><marker id="SvgjsMarker1153" markerWidth="14" markerHeight="10" refX="10" refY="5" viewBox="0 0 14 10" orient="auto" markerUnits="userSpaceOnUse" stroke-dasharray="0,0"><path id="SvgjsPath1154" d="M0,0 L14,5 L0,10 L0,0" fill="#323232" stroke="#323232" stroke-width="1"></path></marker><marker id="SvgjsMarker1157" markerWidth="14" markerHeight="10" refX="10" refY="5" viewBox="0 0 14 10" orient="auto" markerUnits="userSpaceOnUse" stroke-dasharray="0,0"><path id="SvgjsPath1158" d="M0,0 L14,5 L0,10 L0,0" fill="#323232" stroke="#323232" stroke-width="1"></path></marker><marker id="SvgjsMarker1161" markerWidth="14" markerHeight="10" refX="10" refY="5" viewBox="0 0 14 10" orient="auto" markerUnits="userSpaceOnUse" stroke-dasharray="0,0"><path id="SvgjsPath1162" d="M0,0 L14,5 L0,10 L0,0" fill="#323232" stroke="#323232" stroke-width="1"></path></marker><marker id="SvgjsMarker1165" markerWidth="14" markerHeight="10" refX="10" refY="5" viewBox="0 0 14 10" orient="auto" markerUnits="userSpaceOnUse" stroke-dasharray="0,0"><path id="SvgjsPath1166" d="M0,0 L14,5 L0,10 L0,0" fill="#323232" stroke="#323232" stroke-width="1"></path></marker><marker id="SvgjsMarker1169" markerWidth="14" markerHeight="10" refX="10" refY="5" viewBox="0 0 14 10" orient="auto" markerUnits="userSpaceOnUse" stroke-dasharray="0,0"><path id="SvgjsPath1170" d="M0,0 L14,5 L0,10 L0,0" fill="#323232" stroke="#323232" stroke-width="1"></path></marker><marker id="SvgjsMarker1173" markerWidth="14" markerHeight="10" refX="10" refY="5" viewBox="0 0 14 10" orient="auto" markerUnits="userSpaceOnUse" stroke-dasharray="0,0"><path id="SvgjsPath1174" d="M0,0 L14,5 L0,10 L0,0" fill="#323232" stroke="#323232" stroke-width="1"></path></marker><marker id="SvgjsMarker1177" markerWidth="14" markerHeight="10" refX="10" refY="5" viewBox="0 0 14 10" orient="auto" markerUnits="userSpaceOnUse" stroke-dasharray="0,0"><path id="SvgjsPath1178" d="M0,0 L14,5 L0,10 L0,0" fill="#323232" stroke="#323232" stroke-width="1"></path></marker><marker id="SvgjsMarker1181" markerWidth="14" markerHeight="10" refX="10" refY="5" viewBox="0 0 14 10" orient="auto" markerUnits="userSpaceOnUse" stroke-dasharray="0,0"><path id="SvgjsPath1182" d="M0,0 L14,5 L0,10 L0,0" fill="#323232" stroke="#323232" stroke-width="1"></path></marker><marker id="SvgjsMarker1185" markerWidth="14" markerHeight="10" refX="10" refY="5" viewBox="0 0 14 10" orient="auto" markerUnits="userSpaceOnUse" stroke-dasharray="0,0"><path id="SvgjsPath1186" d="M0,0 L14,5 L0,10 L0,0" fill="#323232" stroke="#323232" stroke-width="1"></path></marker></defs><rect id="svgbackgroundid" width="928.3333333333333" height="576.3426038953993" fill="#ffffff"></rect><g id="SvgjsG1009" transform="translate(25,439.1203774346246)"><path id="SvgjsPath1010" d="M 0 4Q 0 0 4 0L 504.33333333333337 0Q 508.33333333333337 0 508.33333333333337 4L 508.33333333333337 107.66666666666674Q 508.33333333333337 111.66666666666674 504.33333333333337 111.66666666666674L 4 111.66666666666674Q 0 111.66666666666674 0 107.66666666666674Z" stroke="rgba(33,41,48,1)" stroke-width="2" fill-opacity="1" fill="#d9d9d9"></path><g id="SvgjsG1011"><text id="SvgjsText1012" font-family="微软雅黑" text-anchor="middle" font-size="13px" width="489px" fill="#323232" font-weight="400" align="middle" lineHeight="125%" anchor="middle" family="微软雅黑" size="13px" weight="400" font-style="" opacity="1" y="45.20833333333337" transform="rotate(0)"></text></g></g><g id="SvgjsG1013" transform="translate(632,257.01969231499567)"><path id="SvgjsPath1014" d="M 0 0L 253 0L 253 154.9895782470703L 0 154.9895782470703Z" stroke-dasharray="10,6" stroke="rgba(33,41,48,1)" stroke-width="2" fill-opacity="1" fill="#ffffff"></path><g id="SvgjsG1015"><text id="SvgjsText1016" font-family="微软雅黑" text-anchor="middle" font-size="13px" width="233px" fill="#323232" font-weight="400" align="middle" lineHeight="125%" anchor="middle" family="微软雅黑" size="13px" weight="400" font-style="" opacity="1" y="66.86978912353516" transform="rotate(0)"></text></g></g><g id="SvgjsG1017" transform="translate(214,150.9988488091363)"><path id="SvgjsPath1018" d="M 0 0L 362 0L 362 192L 0 192Z" stroke="rgba(33,41,48,1)" stroke-width="5" fill-opacity="1" fill="#ffffff"></path><g id="SvgjsG1019"><text id="SvgjsText1020" font-family="微软雅黑" text-anchor="middle" font-size="19px" width="342px" fill="#314aa4" font-weight="400" align="middle" lineHeight="125%" anchor="middle" family="微软雅黑" size="19px" weight="400" font-style="" opacity="1" y="32.125" transform="rotate(0)"><tspan id="SvgjsTspan1021" dy="23" x="181"><tspan id="SvgjsTspan1022" style="text-decoration:;"> </tspan></tspan><tspan id="SvgjsTspan1023" dy="23" x="181"><tspan id="SvgjsTspan1024" style="text-decoration:;"> </tspan></tspan><tspan id="SvgjsTspan1025" dy="23" x="181"><tspan id="SvgjsTspan1026" style="text-decoration:;"> </tspan></tspan><tspan id="SvgjsTspan1027" dy="23" x="181"><tspan id="SvgjsTspan1028" style="text-decoration:;">全局状态：所有节点从该处获取信息，并</tspan></tspan><tspan id="SvgjsTspan1029" dy="23" x="181"><tspan id="SvgjsTspan1030" style="text-decoration:;">同步重要信息</tspan></tspan></text></g></g><g id="SvgjsG1031" transform="translate(179,305.9988488091363)"><path id="SvgjsPath1032" d="M 0 11.666666666666666L 0 49.3C 0 60.900000000000006 70 60.900000000000006 70 49.3L 70 11.666666666666666C 70 -3.1818181818181817 0 -3.1818181818181817 0 11.666666666666666ZM 0 11.666666666666666C 0 26.25 70 26.25 70 11.666666666666666C 70 26.25 0 26.25 0 11.666666666666666" stroke="rgba(33,41,48,1)" stroke-width="3" fill-opacity="1" fill="#ffffff"></path><g id="SvgjsG1033"><text id="SvgjsText1034" font-family="微软雅黑" text-anchor="middle" font-size="13px" width="70px" fill="#323232" font-weight="400" align="middle" lineHeight="125%" anchor="middle" family="微软雅黑" size="13px" weight="400" font-style="" opacity="1" y="-3.924999999999997" transform="rotate(0)"><tspan id="SvgjsTspan1035" dy="16" x="35"><tspan id="SvgjsTspan1036" style="text-decoration:;"> </tspan></tspan><tspan id="SvgjsTspan1037" dy="16" x="35"><tspan id="SvgjsTspan1038" style="text-decoration:;"> </tspan></tspan><tspan id="SvgjsTspan1039" dy="16" x="35"><tspan id="SvgjsTspan1040" style="text-decoration:;">KV存储</tspan></tspan></text></g></g><g id="SvgjsG1041" transform="translate(48,477.009270562066)"><path id="SvgjsPath1042" d="M 0 4Q 0 0 4 0L 94 0Q 98 0 98 4L 98 49Q 98 53 94 53L 4 53Q 0 53 0 49Z" stroke="rgba(33,41,48,1)" stroke-width="5" fill-opacity="1" fill="#ffffff"></path><g id="SvgjsG1043"><text id="SvgjsText1044" font-family="微软雅黑" text-anchor="middle" font-size="13px" width="78px" fill="#323232" font-weight="400" align="middle" lineHeight="125%" anchor="middle" family="微软雅黑" size="13px" weight="400" font-style="" opacity="1" y="15.875" transform="rotate(0)"><tspan id="SvgjsTspan1045" dy="16" x="49"><tspan id="SvgjsTspan1046" style="text-decoration:;">Worker1</tspan></tspan></text></g></g><g id="SvgjsG1047" transform="translate(224,170.00927056206598)"><path id="SvgjsPath1048" d="M 0 0L 88 0L 88 73L 0 73Z" stroke="none" fill="none"></path><g id="SvgjsG1049"><text id="SvgjsText1050" font-family="微软雅黑" text-anchor="start" font-size="13px" width="88px" fill="#323232" font-weight="700" align="middle" lineHeight="125%" anchor="start" family="微软雅黑" size="13px" weight="700" font-style="" opacity="1" y="-6.625" transform="rotate(0)"><tspan id="SvgjsTspan1051" dy="16" x="0"><tspan id="SvgjsTspan1052" style="text-decoration:;">worker列表：</tspan></tspan><tspan id="SvgjsTspan1053" dy="16" x="0"><tspan id="SvgjsTspan1054" style="text-decoration:;font-weight: normal;">worker1</tspan></tspan><tspan id="SvgjsTspan1055" dy="16" x="0"><tspan id="SvgjsTspan1056" style="text-decoration:;font-weight: normal;">worker2</tspan></tspan><tspan id="SvgjsTspan1057" dy="16" x="0"><tspan id="SvgjsTspan1058" style="text-decoration:;font-weight: normal;">worker3</tspan></tspan><tspan id="SvgjsTspan1059" dy="16" x="0"><tspan id="SvgjsTspan1060" style="text-decoration:;">...</tspan></tspan></text></g></g><g id="SvgjsG1061" transform="translate(315,161.00927056206598)"><path id="SvgjsPath1062" d="M 0 0L 88 0L 88 73L 0 73Z" stroke="none" fill="none"></path><g id="SvgjsG1063"><text id="SvgjsText1064" font-family="微软雅黑" text-anchor="start" font-size="13px" width="88px" fill="#323232" font-weight="700" align="middle" lineHeight="125%" anchor="start" family="微软雅黑" size="13px" weight="700" font-style="" opacity="1" y="1.375" transform="rotate(0)"><tspan id="SvgjsTspan1065" dy="16" x="0"><tspan id="SvgjsTspan1066" style="text-decoration:;">调度器列表：</tspan></tspan><tspan id="SvgjsTspan1067" dy="16" x="0"><tspan id="SvgjsTspan1068" style="text-decoration:;font-weight: normal;">scheduler1</tspan></tspan><tspan id="SvgjsTspan1069" dy="16" x="0"><tspan id="SvgjsTspan1070" style="text-decoration:;font-weight: normal;fill: rgb(50, 50, 50);">scheduler2</tspan></tspan><tspan id="SvgjsTspan1071" dy="16" x="0"><tspan id="SvgjsTspan1072" style="text-decoration:;font-size: inherit;">...</tspan></tspan></text></g></g><g id="SvgjsG1073" transform="translate(415,161.00927056206598)"><path id="SvgjsPath1074" d="M 0 0L 88 0L 88 73L 0 73Z" stroke="none" fill="none"></path><g id="SvgjsG1075"><text id="SvgjsText1076" font-family="微软雅黑" text-anchor="start" font-size="13px" width="88px" fill="#323232" font-weight="700" align="middle" lineHeight="125%" anchor="start" family="微软雅黑" size="13px" weight="700" font-style="" opacity="1" y="1.375" transform="rotate(0)"><tspan id="SvgjsTspan1077" dy="16" x="0"><tspan id="SvgjsTspan1078" style="text-decoration:;">任务列表：</tspan></tspan><tspan id="SvgjsTspan1079" dy="16" x="0"><tspan id="SvgjsTspan1080" style="text-decoration:;font-weight: normal;">task1</tspan></tspan><tspan id="SvgjsTspan1081" dy="16" x="0"><tspan id="SvgjsTspan1082" style="text-decoration:;font-weight: normal;fill: rgb(50, 50, 50);">task2</tspan></tspan><tspan id="SvgjsTspan1083" dy="16" x="0"><tspan id="SvgjsTspan1084" style="text-decoration:;font-size: inherit;">...</tspan></tspan></text></g></g><g id="SvgjsG1085" transform="translate(179,477.009270562066)"><path id="SvgjsPath1086" d="M 0 4Q 0 0 4 0L 94 0Q 98 0 98 4L 98 49Q 98 53 94 53L 4 53Q 0 53 0 49Z" stroke="rgba(33,41,48,1)" stroke-width="5" fill-opacity="1" fill="#ffffff"></path><g id="SvgjsG1087"><text id="SvgjsText1088" font-family="微软雅黑" text-anchor="middle" font-size="13px" width="78px" fill="#323232" font-weight="400" align="middle" lineHeight="125%" anchor="middle" family="微软雅黑" size="13px" weight="400" font-style="" opacity="1" y="15.875" transform="rotate(0)"><tspan id="SvgjsTspan1089" dy="16" x="49"><tspan id="SvgjsTspan1090" style="text-decoration:;">Worker2</tspan></tspan></text></g></g><g id="SvgjsG1091" transform="translate(422.0000000000001,477.009270562066)"><path id="SvgjsPath1092" d="M 0 4Q 0 0 4 0L 94 0Q 98 0 98 4L 98 49Q 98 53 94 53L 4 53Q 0 53 0 49Z" stroke="rgba(33,41,48,1)" stroke-width="5" fill-opacity="1" fill="#ffffff"></path><g id="SvgjsG1093"><text id="SvgjsText1094" font-family="微软雅黑" text-anchor="middle" font-size="13px" width="78px" fill="#323232" font-weight="400" align="middle" lineHeight="125%" anchor="middle" family="微软雅黑" size="13px" weight="400" font-style="" opacity="1" y="15.875" transform="rotate(0)"><tspan id="SvgjsTspan1095" dy="16" x="49"><tspan id="SvgjsTspan1096" style="text-decoration:;">WorkerN</tspan></tspan></text></g></g><g id="SvgjsG1097"><path id="SvgjsPath1098" d="M392.71993982445395 344.02419050627384L101.65132275811396 474.91757349990536" stroke="#323232" stroke-width="2" fill="none" marker-end="url(#SvgjsMarker1099)"></path></g><g id="SvgjsG1101"><path id="SvgjsPath1102" d="M393.06892827217655 344.5866025627143L235.93938632475982 473.7806746576966" stroke="#323232" stroke-width="2" fill="none" marker-end="url(#SvgjsMarker1103)"></path></g><g id="SvgjsG1105"><path id="SvgjsPath1106" d="M396.2575258583722 345.15954978695004L470.4346472489208 472.6118623202556" stroke="#323232" stroke-width="2" fill="none" marker-end="url(#SvgjsMarker1107)"></path></g><g id="SvgjsG1109" transform="translate(306,485.009270562066)"><path id="SvgjsPath1110" d="M 0 0L 59 0L 59 37L 0 37Z" stroke="none" fill="none"></path><g id="SvgjsG1111"><text id="SvgjsText1112" font-family="微软雅黑" text-anchor="middle" font-size="27px" width="59px" fill="#323232" font-weight="400" align="middle" lineHeight="125%" anchor="middle" family="微软雅黑" size="27px" weight="400" font-style="" opacity="1" y="-4.875" transform="rotate(0)"><tspan id="SvgjsTspan1113" dy="33" x="29.5"><tspan id="SvgjsTspan1114" style="text-decoration:;font-weight: bold;">...</tspan></tspan></text></g></g><g id="SvgjsG1115" transform="translate(639.75,316.009270562066)"><path id="SvgjsPath1116" d="M 0 18.505210876464844C 0 -6.168403625488281 51.5 -6.168403625488281 51.5 18.505210876464844C 51.5 43.17882537841797 0 43.17882537841797 0 18.505210876464844Z" stroke="rgba(33,41,48,1)" stroke-width="2" fill-opacity="1" fill="#ffffff"></path><g id="SvgjsG1117"><text id="SvgjsText1118" font-family="微软雅黑" text-anchor="middle" font-size="13px" width="32px" fill="#323232" font-weight="400" align="middle" lineHeight="125%" anchor="middle" family="微软雅黑" size="13px" weight="400" font-style="" opacity="1" y="7.880210876464844" transform="rotate(0)"><tspan id="SvgjsTspan1119" dy="16" x="26"><tspan id="SvgjsTspan1120" style="text-decoration:;">read</tspan></tspan></text></g></g><g id="SvgjsG1121" transform="translate(729,268.9780053032769)"><path id="SvgjsPath1122" d="M 0 18.505210876464844C 0 -6.168403625488281 51.5 -6.168403625488281 51.5 18.505210876464844C 51.5 43.17882537841797 0 43.17882537841797 0 18.505210876464844Z" stroke="rgba(33,41,48,1)" stroke-width="2" fill-opacity="1" fill="#ffffff"></path><g id="SvgjsG1123"><text id="SvgjsText1124" font-family="微软雅黑" text-anchor="middle" font-size="13px" width="32px" fill="#323232" font-weight="400" align="middle" lineHeight="125%" anchor="middle" family="微软雅黑" size="13px" weight="400" font-style="" opacity="1" y="7.880210876464844" transform="rotate(0)"><tspan id="SvgjsTspan1125" dy="16" x="26"><tspan id="SvgjsTspan1126" style="text-decoration:;">map</tspan></tspan></text></g></g><g id="SvgjsG1127" transform="translate(810.75,316.009270562066)"><path id="SvgjsPath1128" d="M 0 18.505210876464844C 0 -6.168403625488281 63.5 -6.168403625488281 63.5 18.505210876464844C 63.5 43.17882537841797 0 43.17882537841797 0 18.505210876464844Z" stroke="rgba(33,41,48,1)" stroke-width="2" fill-opacity="1" fill="#ffffff"></path><g id="SvgjsG1129"><text id="SvgjsText1130" font-family="微软雅黑" text-anchor="middle" font-size="13px" width="44px" fill="#323232" font-weight="400" align="middle" lineHeight="125%" anchor="middle" family="微软雅黑" size="13px" weight="400" font-style="" opacity="1" y="7.880210876464844" transform="rotate(0)"><tspan id="SvgjsTspan1131" dy="16" x="32"><tspan id="SvgjsTspan1132" style="text-decoration:;">reduce</tspan></tspan></text></g></g><g id="SvgjsG1133" transform="translate(729,316.009270562066)"><path id="SvgjsPath1134" d="M 0 18.505210876464844C 0 -6.168403625488281 51.5 -6.168403625488281 51.5 18.505210876464844C 51.5 43.17882537841797 0 43.17882537841797 0 18.505210876464844Z" stroke="rgba(33,41,48,1)" stroke-width="2" fill-opacity="1" fill="#ffffff"></path><g id="SvgjsG1135"><text id="SvgjsText1136" font-family="微软雅黑" text-anchor="middle" font-size="13px" width="32px" fill="#323232" font-weight="400" align="middle" lineHeight="125%" anchor="middle" family="微软雅黑" size="13px" weight="400" font-style="" opacity="1" y="7.880210876464844" transform="rotate(0)"><tspan id="SvgjsTspan1137" dy="16" x="26"><tspan id="SvgjsTspan1138" style="text-decoration:;">map</tspan></tspan></text></g></g><g id="SvgjsG1139" transform="translate(729,363.9988488091363)"><path id="SvgjsPath1140" d="M 0 18.505210876464844C 0 -6.168403625488281 51.5 -6.168403625488281 51.5 18.505210876464844C 51.5 43.17882537841797 0 43.17882537841797 0 18.505210876464844Z" stroke="rgba(33,41,48,1)" stroke-width="2" fill-opacity="1" fill="#ffffff"></path><g id="SvgjsG1141"><text id="SvgjsText1142" font-family="微软雅黑" text-anchor="middle" font-size="13px" width="32px" fill="#323232" font-weight="400" align="middle" lineHeight="125%" anchor="middle" family="微软雅黑" size="13px" weight="400" font-style="" opacity="1" y="7.880210876464844" transform="rotate(0)"><tspan id="SvgjsTspan1143" dy="16" x="26"><tspan id="SvgjsTspan1144" style="text-decoration:;">map</tspan></tspan></text></g></g><g id="SvgjsG1145" transform="translate(346,25.00927056206597)"><path id="SvgjsPath1146" d="M 0 4Q 0 0 4 0L 94 0Q 98 0 98 4L 98 49Q 98 53 94 53L 4 53Q 0 53 0 49Z" stroke="rgba(33,41,48,1)" stroke-width="5" fill-opacity="1" fill="#ffffff"></path><g id="SvgjsG1147"><text id="SvgjsText1148" font-family="微软雅黑" text-anchor="middle" font-size="13px" width="78px" fill="#323232" font-weight="400" align="middle" lineHeight="125%" anchor="middle" family="微软雅黑" size="13px" weight="400" font-style="" opacity="1" y="15.875" transform="rotate(0)"><tspan id="SvgjsTspan1149" dy="16" x="49"><tspan id="SvgjsTspan1150" style="text-decoration:;">Scheduler1</tspan></tspan></text></g></g><g id="SvgjsG1151"><path id="SvgjsPath1152" d="M395 148.4988488091363L395 83.10927056206597" stroke="#323232" stroke-width="2" fill="none" marker-end="url(#SvgjsMarker1153)"></path></g><g id="SvgjsG1155"><path id="SvgjsPath1156" d="M691.8759579526876 333.734624630221L726.7465513703248 290.29070068965717" stroke="#323232" stroke-width="2" fill="none" marker-end="url(#SvgjsMarker1157)"></path></g><g id="SvgjsG1159"><path id="SvgjsPath1160" d="M692.25 334.5144814385308L725.4 334.5144814385308" stroke="#323232" stroke-width="2" fill="none" marker-end="url(#SvgjsMarker1161)"></path></g><g id="SvgjsG1163"><path id="SvgjsPath1164" d="M691.8682660307211 335.3004503407505L726.7742422894042 379.67457163761026" stroke="#323232" stroke-width="2" fill="none" marker-end="url(#SvgjsMarker1165)"></path></g><g id="SvgjsG1167"><path id="SvgjsPath1168" d="M781.0332466887492 381.6580998940401L808.8303119205028 337.5599366881506" stroke="#323232" stroke-width="2" fill="none" marker-end="url(#SvgjsMarker1169)"></path></g><g id="SvgjsG1171"><path id="SvgjsPath1172" d="M781.5 334.5144814385308L807.15 334.5144814385308" stroke="#323232" stroke-width="2" fill="none" marker-end="url(#SvgjsMarker1173)"></path></g><g id="SvgjsG1175"><path id="SvgjsPath1176" d="M781.0409551639056 288.32426761137L808.8025614099399 331.48669628466916" stroke="#323232" stroke-width="2" fill="none" marker-end="url(#SvgjsMarker1177)"></path></g><g id="SvgjsG1179"><path id="SvgjsPath1180" d="M758.5 178.50927056206598L758.5 253.41969231499564" stroke="#323232" stroke-width="2" fill="none" marker-end="url(#SvgjsMarker1181)"></path></g><g id="SvgjsG1183"><path id="SvgjsPath1184" d="M631.5 334.884270562066L602.5 334.884270562066L602.5 191.34260389539935L455.83333333333337 191.34260389539935" stroke="#323232" stroke-width="2" fill="none" marker-end="url(#SvgjsMarker1185)"></path></g><g id="SvgjsG1187" transform="translate(616.6666666666669,413.34260389539935)"><path id="SvgjsPath1188" d="M 0 0L 286.66666666666674 0L 286.66666666666674 63.333333333333336L 0 63.333333333333336Z" stroke="none" fill="none"></path><g id="SvgjsG1189"><text id="SvgjsText1190" font-family="微软雅黑" text-anchor="middle" font-size="14px" width="287px" fill="#323232" font-weight="700" align="middle" lineHeight="125%" anchor="middle" family="微软雅黑" size="14px" weight="700" font-style="" opacity="1" y="19.916666666666668" transform="rotate(0)"><tspan id="SvgjsTspan1191" dy="17" x="143.5"><tspan id="SvgjsTspan1192" style="text-decoration:;">用户构建的DataFlow图按Node拆解成Task</tspan></tspan></text></g></g><g id="SvgjsG1193" transform="translate(270.6666666666669,435.3426038953991)"><path id="SvgjsPath1194" d="M 0 0L 170.16666666666652 0L 170.16666666666652 53.00000000000023L 0 53.00000000000023Z" stroke="none" fill="none"></path><g id="SvgjsG1195"><text id="SvgjsText1196" font-family="微软雅黑" text-anchor="middle" font-size="13px" width="171px" fill="#323232" font-weight="400" align="middle" lineHeight="125%" anchor="middle" family="微软雅黑" size="13px" weight="400" font-style="" opacity="1" y="7.375000000000114" transform="rotate(0)"><tspan id="SvgjsTspan1197" dy="16" x="85.5"><tspan id="SvgjsTspan1198" style="text-decoration:;">Worker之间基于消息中间件</tspan></tspan><tspan id="SvgjsTspan1199" dy="16" x="85.5"><tspan id="SvgjsTspan1200" style="text-decoration:;">进行通讯，文件传递等</tspan></tspan></text></g></g><g id="SvgjsG1201" transform="translate(723.1428571428575,140.2339780292814)"><path id="SvgjsPath1202" d="M 0 3.811197280883789Q 36 -3.811197280883789 72 3.811197280883789L 72 30.489578247070312L 0 30.489578247070312L 0 3.811197280883789Z" stroke="rgba(33,41,48,1)" stroke-width="5" fill-opacity="1" fill="#ffffff"></path><g id="SvgjsG1203"><text id="SvgjsText1204" font-family="微软雅黑" text-anchor="middle" font-size="13px" width="52px" fill="#323232" font-weight="400" align="middle" lineHeight="125%" anchor="middle" family="微软雅黑" size="13px" weight="400" font-style="" opacity="1" y="4.619789123535156" transform="rotate(0)"></text></g></g><g id="SvgjsG1205" transform="translate(742.1428571428575,101.06431991334944)"><path id="SvgjsPath1206" d="M 0 15C 0 -5 35 -5 35 15C 35 35 0 35 0 15Z" stroke="rgba(33,41,48,1)" stroke-width="5" fill-opacity="1" fill="#ffffff"></path><g id="SvgjsG1207"><text id="SvgjsText1208" font-family="微软雅黑" text-anchor="middle" font-size="13px" width="15px" fill="#323232" font-weight="400" align="middle" lineHeight="125%" anchor="middle" family="微软雅黑" size="13px" weight="400" font-style="" opacity="1" y="4.375" transform="rotate(0)"></text></g></g></svg>