<svg id="SvgjsSvg1205" width="928.3333333333334" height="575.78125" xmlns="http://www.w3.org/2000/svg" version="1.1" xmlns:xlink="http://www.w3.org/1999/xlink" xmlns:svgjs="http://svgjs.com/svgjs"><defs id="SvgjsDefs1206"><pattern id="SvgjsPattern1248" x="0" y="0" width="66" height="73.01042175292969" patternUnits="userSpaceOnUse"><image id="SvgjsImage1249" xlink:href="https://iconsapi.com/5ee26446e4b0b788a932ead7.svg" width="66" height="73.01042175292969" preserveAspectRatio="none" crossOrigin="anonymous" x="0" y="0"></image></pattern><marker id="SvgjsMarker1302" markerWidth="14" markerHeight="10" refX="10" refY="5" viewBox="0 0 14 10" orient="auto" markerUnits="userSpaceOnUse" stroke-dasharray="0,0"><path id="SvgjsPath1303" d="M0,0 L14,5 L0,10 L0,0" fill="#323232" stroke="#323232" stroke-width="1"></path></marker><marker id="SvgjsMarker1306" markerWidth="14" markerHeight="10" refX="10" refY="5" viewBox="0 0 14 10" orient="auto" markerUnits="userSpaceOnUse" stroke-dasharray="0,0"><path id="SvgjsPath1307" d="M0,0 L14,5 L0,10 L0,0" fill="#323232" stroke="#323232" stroke-width="1"></path></marker><marker id="SvgjsMarker1310" markerWidth="14" markerHeight="10" refX="10" refY="5" viewBox="0 0 14 10" orient="auto" markerUnits="userSpaceOnUse" stroke-dasharray="0,0"><path id="SvgjsPath1311" d="M0,0 L14,5 L0,10 L0,0" fill="#323232" stroke="#323232" stroke-width="1"></path></marker><marker id="SvgjsMarker1356" markerWidth="14" markerHeight="10" refX="10" refY="5" viewBox="0 0 14 10" orient="auto" markerUnits="userSpaceOnUse" stroke-dasharray="0,0"><path id="SvgjsPath1357" d="M0,0 L14,5 L0,10 L0,0" fill="#323232" stroke="#323232" stroke-width="1"></path></marker><marker id="SvgjsMarker1360" markerWidth="14" markerHeight="10" refX="10" refY="5" viewBox="0 0 14 10" orient="auto" markerUnits="userSpaceOnUse" stroke-dasharray="0,0"><path id="SvgjsPath1361" d="M0,0 L14,5 L0,10 L0,0" fill="#323232" stroke="#323232" stroke-width="1"></path></marker><marker id="SvgjsMarker1364" markerWidth="14" markerHeight="10" refX="10" refY="5" viewBox="0 0 14 10" orient="auto" markerUnits="userSpaceOnUse" stroke-dasharray="0,0"><path id="SvgjsPath1365" d="M0,0 L14,5 L0,10 L0,0" fill="#323232" stroke="#323232" stroke-width="1"></path></marker><marker id="SvgjsMarker1368" markerWidth="14" markerHeight="10" refX="10" refY="5" viewBox="0 0 14 10" orient="auto" markerUnits="userSpaceOnUse" stroke-dasharray="0,0"><path id="SvgjsPath1369" d="M0,0 L14,5 L0,10 L0,0" fill="#323232" stroke="#323232" stroke-width="1"></path></marker><marker id="SvgjsMarker1372" markerWidth="14" markerHeight="10" refX="10" refY="5" viewBox="0 0 14 10" orient="auto" markerUnits="userSpaceOnUse" stroke-dasharray="0,0"><path id="SvgjsPath1373" d="M0,0 L14,5 L0,10 L0,0" fill="#323232" stroke="#323232" stroke-width="1"></path></marker><marker id="SvgjsMarker1376" markerWidth="14" markerHeight="10" refX="10" refY="5" viewBox="0 0 14 10" orient="auto" markerUnits="userSpaceOnUse" stroke-dasharray="0,0"><path id="SvgjsPath1377" d="M0,0 L14,5 L0,10 L0,0" fill="#323232" stroke="#323232" stroke-width="1"></path></marker><marker id="SvgjsMarker1380" markerWidth="14" markerHeight="10" refX="10" refY="5" viewBox="0 0 14 10" orient="auto" markerUnits="userSpaceOnUse" stroke-dasharray="0,0"><path id="SvgjsPath1381" d="M0,0 L14,5 L0,10 L0,0" fill="#323232" stroke="#323232" stroke-width="1"></path></marker><marker id="SvgjsMarker1384" markerWidth="14" markerHeight="10" refX="10" refY="5" viewBox="0 0 14 10" orient="auto" markerUnits="userSpaceOnUse" stroke-dasharray="0,0"><path id="SvgjsPath1385" d="M0,0 L14,5 L0,10 L0,0" fill="#323232" stroke="#323232" stroke-width="1"></path></marker><marker id="SvgjsMarker1388" markerWidth="14" markerHeight="10" refX="10" refY="5" viewBox="0 0 14 10" orient="auto" markerUnits="userSpaceOnUse" stroke-dasharray="0,0"><path id="SvgjsPath1389" d="M0,0 L14,5 L0,10 L0,0" fill="#323232" stroke="#323232" stroke-width="1"></path></marker></defs><rect id="svgbackgroundid" width="928.3333333333334" height="575.78125" fill="#ffffff"></rect><g id="SvgjsG1208" transform="translate(25,439.1145833333333)"><path id="SvgjsPath1209" d="M 0 4Q 0 0 4 0L 504.33333333333337 0Q 508.33333333333337 0 508.33333333333337 4L 508.33333333333337 107.66666666666674Q 508.33333333333337 111.66666666666674 504.33333333333337 111.66666666666674L 4 111.66666666666674Q 0 111.66666666666674 0 107.66666666666674Z" stroke="rgba(33,41,48,1)" stroke-width="2" fill-opacity="1" fill="#d9d9d9"></path><g id="SvgjsG1210"><text id="SvgjsText1211" font-family="微软雅黑" text-anchor="middle" font-size="13px" width="489px" fill="#323232" font-weight="400" align="middle" lineHeight="125%" anchor="middle" family="微软雅黑" size="13px" weight="400" font-style="" opacity="1" y="45.20833333333337" transform="rotate(0)"></text></g></g><g id="SvgjsG1212" transform="translate(632,257.0138982137044)"><path id="SvgjsPath1213" d="M 0 0L 253 0L 253 154.9895782470703L 0 154.9895782470703Z" stroke-dasharray="10,6" stroke="rgba(33,41,48,1)" stroke-width="2" fill-opacity="1" fill="#ffffff"></path><g id="SvgjsG1214"><text id="SvgjsText1215" font-family="微软雅黑" text-anchor="middle" font-size="13px" width="233px" fill="#323232" font-weight="400" align="middle" lineHeight="125%" anchor="middle" family="微软雅黑" size="13px" weight="400" font-style="" opacity="1" y="66.86978912353516" transform="rotate(0)"></text></g></g><g id="SvgjsG1216" transform="translate(214,150.99305470784503)"><path id="SvgjsPath1217" d="M 0 0L 362 0L 362 192L 0 192Z" stroke="rgba(33,41,48,1)" stroke-width="5" fill-opacity="1" fill="#ffffff"></path><g id="SvgjsG1218"><text id="SvgjsText1219" font-family="微软雅黑" text-anchor="middle" font-size="19px" width="342px" fill="#314aa4" font-weight="400" align="middle" lineHeight="125%" anchor="middle" family="微软雅黑" size="19px" weight="400" font-style="" opacity="1" y="32.125" transform="rotate(0)"><tspan id="SvgjsTspan1220" dy="23" x="181"><tspan id="SvgjsTspan1221" style="text-decoration:;"> </tspan></tspan><tspan id="SvgjsTspan1222" dy="23" x="181"><tspan id="SvgjsTspan1223" style="text-decoration:;"> </tspan></tspan><tspan id="SvgjsTspan1224" dy="23" x="181"><tspan id="SvgjsTspan1225" style="text-decoration:;"> </tspan></tspan><tspan id="SvgjsTspan1226" dy="23" x="181"><tspan id="SvgjsTspan1227" style="text-decoration:;">全局状态：所有节点从该处获取信息，并</tspan></tspan><tspan id="SvgjsTspan1228" dy="23" x="181"><tspan id="SvgjsTspan1229" style="text-decoration:;">同步重要信息</tspan></tspan></text></g></g><g id="SvgjsG1230" transform="translate(179,305.99305470784503)"><path id="SvgjsPath1231" d="M 0 11.666666666666666L 0 49.3C 0 60.900000000000006 70 60.900000000000006 70 49.3L 70 11.666666666666666C 70 -3.1818181818181817 0 -3.1818181818181817 0 11.666666666666666ZM 0 11.666666666666666C 0 26.25 70 26.25 70 11.666666666666666C 70 26.25 0 26.25 0 11.666666666666666" stroke="rgba(33,41,48,1)" stroke-width="3" fill-opacity="1" fill="#ffffff"></path><g id="SvgjsG1232"><text id="SvgjsText1233" font-family="微软雅黑" text-anchor="middle" font-size="13px" width="70px" fill="#323232" font-weight="400" align="middle" lineHeight="125%" anchor="middle" family="微软雅黑" size="13px" weight="400" font-style="" opacity="1" y="-3.924999999999997" transform="rotate(0)"><tspan id="SvgjsTspan1234" dy="16" x="35"><tspan id="SvgjsTspan1235" style="text-decoration:;"> </tspan></tspan><tspan id="SvgjsTspan1236" dy="16" x="35"><tspan id="SvgjsTspan1237" style="text-decoration:;"> </tspan></tspan><tspan id="SvgjsTspan1238" dy="16" x="35"><tspan id="SvgjsTspan1239" style="text-decoration:;">KV存储</tspan></tspan></text></g></g><g id="SvgjsG1240" transform="translate(48,477.0034764607747)"><path id="SvgjsPath1241" d="M 0 4Q 0 0 4 0L 94 0Q 98 0 98 4L 98 49Q 98 53 94 53L 4 53Q 0 53 0 49Z" stroke="rgba(33,41,48,1)" stroke-width="5" fill-opacity="1" fill="#ffffff"></path><g id="SvgjsG1242"><text id="SvgjsText1243" font-family="微软雅黑" text-anchor="middle" font-size="13px" width="78px" fill="#323232" font-weight="400" align="middle" lineHeight="125%" anchor="middle" family="微软雅黑" size="13px" weight="400" font-style="" opacity="1" y="15.875" transform="rotate(0)"><tspan id="SvgjsTspan1244" dy="16" x="49"><tspan id="SvgjsTspan1245" style="text-decoration:;">Worker1</tspan></tspan></text></g></g><g id="SvgjsG1246" transform="translate(725.5,105.49305470784505)"><path id="SvgjsPath1247" d="M 0 0L 66 0L 66 73.01042175292969L 0 73.01042175292969Z" stroke="none" fill="url(#SvgjsPattern1248)"></path></g><g id="SvgjsG1250" transform="translate(224,170.00347646077472)"><path id="SvgjsPath1251" d="M 0 0L 88 0L 88 73L 0 73Z" stroke="none" fill="none"></path><g id="SvgjsG1252"><text id="SvgjsText1253" font-family="微软雅黑" text-anchor="start" font-size="13px" width="88px" fill="#323232" font-weight="700" align="middle" lineHeight="125%" anchor="start" family="微软雅黑" size="13px" weight="700" font-style="" opacity="1" y="-6.625" transform="rotate(0)"><tspan id="SvgjsTspan1254" dy="16" x="0"><tspan id="SvgjsTspan1255" style="text-decoration:;">worker列表：</tspan></tspan><tspan id="SvgjsTspan1256" dy="16" x="0"><tspan id="SvgjsTspan1257" style="text-decoration:;font-weight: normal;">worker1</tspan></tspan><tspan id="SvgjsTspan1258" dy="16" x="0"><tspan id="SvgjsTspan1259" style="text-decoration:;font-weight: normal;">worker2</tspan></tspan><tspan id="SvgjsTspan1260" dy="16" x="0"><tspan id="SvgjsTspan1261" style="text-decoration:;font-weight: normal;">worker3</tspan></tspan><tspan id="SvgjsTspan1262" dy="16" x="0"><tspan id="SvgjsTspan1263" style="text-decoration:;">...</tspan></tspan></text></g></g><g id="SvgjsG1264" transform="translate(315,161.00347646077472)"><path id="SvgjsPath1265" d="M 0 0L 88 0L 88 73L 0 73Z" stroke="none" fill="none"></path><g id="SvgjsG1266"><text id="SvgjsText1267" font-family="微软雅黑" text-anchor="start" font-size="13px" width="88px" fill="#323232" font-weight="700" align="middle" lineHeight="125%" anchor="start" family="微软雅黑" size="13px" weight="700" font-style="" opacity="1" y="1.375" transform="rotate(0)"><tspan id="SvgjsTspan1268" dy="16" x="0"><tspan id="SvgjsTspan1269" style="text-decoration:;">调度器列表：</tspan></tspan><tspan id="SvgjsTspan1270" dy="16" x="0"><tspan id="SvgjsTspan1271" style="text-decoration:;font-weight: normal;">scheduler1</tspan></tspan><tspan id="SvgjsTspan1272" dy="16" x="0"><tspan id="SvgjsTspan1273" style="text-decoration:;font-weight: normal;fill: rgb(50, 50, 50);">scheduler2</tspan></tspan><tspan id="SvgjsTspan1274" dy="16" x="0"><tspan id="SvgjsTspan1275" style="text-decoration:;font-size: inherit;">...</tspan></tspan></text></g></g><g id="SvgjsG1276" transform="translate(415,161.00347646077472)"><path id="SvgjsPath1277" d="M 0 0L 88 0L 88 73L 0 73Z" stroke="none" fill="none"></path><g id="SvgjsG1278"><text id="SvgjsText1279" font-family="微软雅黑" text-anchor="start" font-size="13px" width="88px" fill="#323232" font-weight="700" align="middle" lineHeight="125%" anchor="start" family="微软雅黑" size="13px" weight="700" font-style="" opacity="1" y="1.375" transform="rotate(0)"><tspan id="SvgjsTspan1280" dy="16" x="0"><tspan id="SvgjsTspan1281" style="text-decoration:;">任务列表：</tspan></tspan><tspan id="SvgjsTspan1282" dy="16" x="0"><tspan id="SvgjsTspan1283" style="text-decoration:;font-weight: normal;">task1</tspan></tspan><tspan id="SvgjsTspan1284" dy="16" x="0"><tspan id="SvgjsTspan1285" style="text-decoration:;font-weight: normal;fill: rgb(50, 50, 50);">task2</tspan></tspan><tspan id="SvgjsTspan1286" dy="16" x="0"><tspan id="SvgjsTspan1287" style="text-decoration:;font-size: inherit;">...</tspan></tspan></text></g></g><g id="SvgjsG1288" transform="translate(179,477.0034764607747)"><path id="SvgjsPath1289" d="M 0 4Q 0 0 4 0L 94 0Q 98 0 98 4L 98 49Q 98 53 94 53L 4 53Q 0 53 0 49Z" stroke="rgba(33,41,48,1)" stroke-width="5" fill-opacity="1" fill="#ffffff"></path><g id="SvgjsG1290"><text id="SvgjsText1291" font-family="微软雅黑" text-anchor="middle" font-size="13px" width="78px" fill="#323232" font-weight="400" align="middle" lineHeight="125%" anchor="middle" family="微软雅黑" size="13px" weight="400" font-style="" opacity="1" y="15.875" transform="rotate(0)"><tspan id="SvgjsTspan1292" dy="16" x="49"><tspan id="SvgjsTspan1293" style="text-decoration:;">Worker2</tspan></tspan></text></g></g><g id="SvgjsG1294" transform="translate(422.0000000000001,477.0034764607747)"><path id="SvgjsPath1295" d="M 0 4Q 0 0 4 0L 94 0Q 98 0 98 4L 98 49Q 98 53 94 53L 4 53Q 0 53 0 49Z" stroke="rgba(33,41,48,1)" stroke-width="5" fill-opacity="1" fill="#ffffff"></path><g id="SvgjsG1296"><text id="SvgjsText1297" font-family="微软雅黑" text-anchor="middle" font-size="13px" width="78px" fill="#323232" font-weight="400" align="middle" lineHeight="125%" anchor="middle" family="微软雅黑" size="13px" weight="400" font-style="" opacity="1" y="15.875" transform="rotate(0)"><tspan id="SvgjsTspan1298" dy="16" x="49"><tspan id="SvgjsTspan1299" style="text-decoration:;">WorkerN</tspan></tspan></text></g></g><g id="SvgjsG1300"><path id="SvgjsPath1301" d="M392.71993982445395 344.0183964049826L101.65132275811396 474.9117793986141" stroke="#323232" stroke-width="2" fill="none" marker-end="url(#SvgjsMarker1302)"></path></g><g id="SvgjsG1304"><path id="SvgjsPath1305" d="M393.06892827217655 344.58080846142303L235.93938632475982 473.7748805564053" stroke="#323232" stroke-width="2" fill="none" marker-end="url(#SvgjsMarker1306)"></path></g><g id="SvgjsG1308"><path id="SvgjsPath1309" d="M396.2575258583722 345.1537556856588L470.4346472489208 472.60606821896437" stroke="#323232" stroke-width="2" fill="none" marker-end="url(#SvgjsMarker1310)"></path></g><g id="SvgjsG1312" transform="translate(306,485.0034764607747)"><path id="SvgjsPath1313" d="M 0 0L 59 0L 59 37L 0 37Z" stroke="none" fill="none"></path><g id="SvgjsG1314"><text id="SvgjsText1315" font-family="微软雅黑" text-anchor="middle" font-size="27px" width="59px" fill="#323232" font-weight="400" align="middle" lineHeight="125%" anchor="middle" family="微软雅黑" size="27px" weight="400" font-style="" opacity="1" y="-4.875" transform="rotate(0)"><tspan id="SvgjsTspan1316" dy="33" x="29.5"><tspan id="SvgjsTspan1317" style="text-decoration:;font-weight: bold;">...</tspan></tspan></text></g></g><g id="SvgjsG1318" transform="translate(639.75,316.0034764607747)"><path id="SvgjsPath1319" d="M 0 18.505210876464844C 0 -6.168403625488281 51.5 -6.168403625488281 51.5 18.505210876464844C 51.5 43.17882537841797 0 43.17882537841797 0 18.505210876464844Z" stroke="rgba(33,41,48,1)" stroke-width="2" fill-opacity="1" fill="#ffffff"></path><g id="SvgjsG1320"><text id="SvgjsText1321" font-family="微软雅黑" text-anchor="middle" font-size="13px" width="32px" fill="#323232" font-weight="400" align="middle" lineHeight="125%" anchor="middle" family="微软雅黑" size="13px" weight="400" font-style="" opacity="1" y="7.880210876464844" transform="rotate(0)"><tspan id="SvgjsTspan1322" dy="16" x="26"><tspan id="SvgjsTspan1323" style="text-decoration:;">read</tspan></tspan></text></g></g><g id="SvgjsG1324" transform="translate(729,268.97221120198566)"><path id="SvgjsPath1325" d="M 0 18.505210876464844C 0 -6.168403625488281 51.5 -6.168403625488281 51.5 18.505210876464844C 51.5 43.17882537841797 0 43.17882537841797 0 18.505210876464844Z" stroke="rgba(33,41,48,1)" stroke-width="2" fill-opacity="1" fill="#ffffff"></path><g id="SvgjsG1326"><text id="SvgjsText1327" font-family="微软雅黑" text-anchor="middle" font-size="13px" width="32px" fill="#323232" font-weight="400" align="middle" lineHeight="125%" anchor="middle" family="微软雅黑" size="13px" weight="400" font-style="" opacity="1" y="7.880210876464844" transform="rotate(0)"><tspan id="SvgjsTspan1328" dy="16" x="26"><tspan id="SvgjsTspan1329" style="text-decoration:;">map</tspan></tspan></text></g></g><g id="SvgjsG1330" transform="translate(810.75,316.0034764607747)"><path id="SvgjsPath1331" d="M 0 18.505210876464844C 0 -6.168403625488281 63.5 -6.168403625488281 63.5 18.505210876464844C 63.5 43.17882537841797 0 43.17882537841797 0 18.505210876464844Z" stroke="rgba(33,41,48,1)" stroke-width="2" fill-opacity="1" fill="#ffffff"></path><g id="SvgjsG1332"><text id="SvgjsText1333" font-family="微软雅黑" text-anchor="middle" font-size="13px" width="44px" fill="#323232" font-weight="400" align="middle" lineHeight="125%" anchor="middle" family="微软雅黑" size="13px" weight="400" font-style="" opacity="1" y="7.880210876464844" transform="rotate(0)"><tspan id="SvgjsTspan1334" dy="16" x="32"><tspan id="SvgjsTspan1335" style="text-decoration:;">reduce</tspan></tspan></text></g></g><g id="SvgjsG1336" transform="translate(729,316.0034764607747)"><path id="SvgjsPath1337" d="M 0 18.505210876464844C 0 -6.168403625488281 51.5 -6.168403625488281 51.5 18.505210876464844C 51.5 43.17882537841797 0 43.17882537841797 0 18.505210876464844Z" stroke="rgba(33,41,48,1)" stroke-width="2" fill-opacity="1" fill="#ffffff"></path><g id="SvgjsG1338"><text id="SvgjsText1339" font-family="微软雅黑" text-anchor="middle" font-size="13px" width="32px" fill="#323232" font-weight="400" align="middle" lineHeight="125%" anchor="middle" family="微软雅黑" size="13px" weight="400" font-style="" opacity="1" y="7.880210876464844" transform="rotate(0)"><tspan id="SvgjsTspan1340" dy="16" x="26"><tspan id="SvgjsTspan1341" style="text-decoration:;">map</tspan></tspan></text></g></g><g id="SvgjsG1342" transform="translate(729,363.99305470784503)"><path id="SvgjsPath1343" d="M 0 18.505210876464844C 0 -6.168403625488281 51.5 -6.168403625488281 51.5 18.505210876464844C 51.5 43.17882537841797 0 43.17882537841797 0 18.505210876464844Z" stroke="rgba(33,41,48,1)" stroke-width="2" fill-opacity="1" fill="#ffffff"></path><g id="SvgjsG1344"><text id="SvgjsText1345" font-family="微软雅黑" text-anchor="middle" font-size="13px" width="32px" fill="#323232" font-weight="400" align="middle" lineHeight="125%" anchor="middle" family="微软雅黑" size="13px" weight="400" font-style="" opacity="1" y="7.880210876464844" transform="rotate(0)"><tspan id="SvgjsTspan1346" dy="16" x="26"><tspan id="SvgjsTspan1347" style="text-decoration:;">map</tspan></tspan></text></g></g><g id="SvgjsG1348" transform="translate(346,25.003476460774735)"><path id="SvgjsPath1349" d="M 0 4Q 0 0 4 0L 94 0Q 98 0 98 4L 98 49Q 98 53 94 53L 4 53Q 0 53 0 49Z" stroke="rgba(33,41,48,1)" stroke-width="5" fill-opacity="1" fill="#ffffff"></path><g id="SvgjsG1350"><text id="SvgjsText1351" font-family="微软雅黑" text-anchor="middle" font-size="13px" width="78px" fill="#323232" font-weight="400" align="middle" lineHeight="125%" anchor="middle" family="微软雅黑" size="13px" weight="400" font-style="" opacity="1" y="15.875" transform="rotate(0)"><tspan id="SvgjsTspan1352" dy="16" x="49"><tspan id="SvgjsTspan1353" style="text-decoration:;">Scheduler1</tspan></tspan></text></g></g><g id="SvgjsG1354"><path id="SvgjsPath1355" d="M395 148.49305470784503L395 83.10347646077473" stroke="#323232" stroke-width="2" fill="none" marker-end="url(#SvgjsMarker1356)"></path></g><g id="SvgjsG1358"><path id="SvgjsPath1359" d="M691.8759579526876 333.72883052892973L726.7465513703248 290.2849065883659" stroke="#323232" stroke-width="2" fill="none" marker-end="url(#SvgjsMarker1360)"></path></g><g id="SvgjsG1362"><path id="SvgjsPath1363" d="M692.25 334.50868733723956L725.4 334.50868733723956" stroke="#323232" stroke-width="2" fill="none" marker-end="url(#SvgjsMarker1364)"></path></g><g id="SvgjsG1366"><path id="SvgjsPath1367" d="M691.8682660307211 335.29465623945924L726.7742422894042 379.668777536319" stroke="#323232" stroke-width="2" fill="none" marker-end="url(#SvgjsMarker1368)"></path></g><g id="SvgjsG1370"><path id="SvgjsPath1371" d="M781.0332466887492 381.65230579274885L808.8303119205028 337.5541425868593" stroke="#323232" stroke-width="2" fill="none" marker-end="url(#SvgjsMarker1372)"></path></g><g id="SvgjsG1374"><path id="SvgjsPath1375" d="M781.5 334.50868733723956L807.15 334.50868733723956" stroke="#323232" stroke-width="2" fill="none" marker-end="url(#SvgjsMarker1376)"></path></g><g id="SvgjsG1378"><path id="SvgjsPath1379" d="M781.0409551639056 288.3184735100787L808.8025614099399 331.4809021833779" stroke="#323232" stroke-width="2" fill="none" marker-end="url(#SvgjsMarker1380)"></path></g><g id="SvgjsG1382"><path id="SvgjsPath1383" d="M758.5 179.50347646077472L758.5 253.41389821370439" stroke="#323232" stroke-width="2" fill="none" marker-end="url(#SvgjsMarker1384)"></path></g><g id="SvgjsG1386"><path id="SvgjsPath1387" d="M631.5 334.8784764607747L602.5 334.8784764607747L602.5 191.3368097941081L455.83333333333337 191.3368097941081" stroke="#323232" stroke-width="2" fill="none" marker-end="url(#SvgjsMarker1388)"></path></g><g id="SvgjsG1390" transform="translate(616.6666666666669,413.3368097941081)"><path id="SvgjsPath1391" d="M 0 0L 286.66666666666674 0L 286.66666666666674 63.333333333333336L 0 63.333333333333336Z" stroke="none" fill="none"></path><g id="SvgjsG1392"><text id="SvgjsText1393" font-family="微软雅黑" text-anchor="middle" font-size="14px" width="287px" fill="#323232" font-weight="700" align="middle" lineHeight="125%" anchor="middle" family="微软雅黑" size="14px" weight="700" font-style="" opacity="1" y="19.916666666666668" transform="rotate(0)"><tspan id="SvgjsTspan1394" dy="17" x="143.5"><tspan id="SvgjsTspan1395" style="text-decoration:;">用户构建的DataFlow图按Node拆解成Task</tspan></tspan></text></g></g><g id="SvgjsG1396" transform="translate(270.6666666666669,435.33680979410786)"><path id="SvgjsPath1397" d="M 0 0L 170.16666666666652 0L 170.16666666666652 53.00000000000023L 0 53.00000000000023Z" stroke="none" fill="none"></path><g id="SvgjsG1398"><text id="SvgjsText1399" font-family="微软雅黑" text-anchor="middle" font-size="13px" width="171px" fill="#323232" font-weight="400" align="middle" lineHeight="125%" anchor="middle" family="微软雅黑" size="13px" weight="400" font-style="" opacity="1" y="7.375000000000114" transform="rotate(0)"><tspan id="SvgjsTspan1400" dy="16" x="85.5"><tspan id="SvgjsTspan1401" style="text-decoration:;">Worker之间基于消息中间件</tspan></tspan><tspan id="SvgjsTspan1402" dy="16" x="85.5"><tspan id="SvgjsTspan1403" style="text-decoration:;">进行通讯，文件传递等</tspan></tspan></text></g></g></svg>